<svg width="1240" height="1240" xmlns="http://www.w3.org/2000/svg" clip-rule="evenodd" xml:space="preserve"
    version="1.1">
    <g id="Layer_1">
        <title>Layer 1</title>
        <g stroke-width="0" fill="url(#svg_6)" stroke="#fcfcfc" id="svg_1">
            <path id="svg_2" fill="url(#svg_11)"
                d="m627.61467,223.32227a27.70674,27.64 0 0 0 -20.61381,0l-330.7076,131.95337l133.21398,53.12408l341.0145,-136.04409l-122.90708,-49.03336zm197.49361,78.82929l-341.0145,136.04409l133.21398,53.12408l341.0145,-136.04409l-133.21398,-53.12408zm180.09378,93.97601l-360.18756,143.72801l0,437.92819l360.18756,-143.72801l0,-437.87291l0,-0.05528zm-415.60103,581.71148l0,-438.03875l-360.18756,-143.67273l0,437.98347l360.18756,143.72801zm-3.15857,-805.87189a83.12021,82.92001 0 0 1 61.73061,0l395.04264,157.65857a27.70674,27.64 0 0 1 17.39983,25.64992l0,478.83539a55.41347,55.28 0 0 1 -34.85507,51.29984l-398.14579,158.87473a27.70674,27.64 0 0 1 -20.61381,0l-398.09038,-158.87473a55.41347,55.28 0 0 1 -34.91049,-51.29984l0,-478.83539a27.70674,27.64 0 0 1 17.39983,-25.64992l395.04264,-157.65857z" />
        </g>
        <ellipse ry="220" rx="220" id="svg_7" cy="868" cx="886" stroke="#fcfcfc" fill="#ffffff" />
        <path stroke="#fcfcfc" stroke-width="0" id="svg_3"
            d="m887.38456,673.41928c-106.59591,0 -192.99993,86.40915 -192.99993,193.00008c0,106.5964 86.40402,192.99999 192.99993,192.99999c106.59092,0 192.99999,-86.40358 192.99999,-192.99999c0,-106.59093 -86.40906,-193.00008 -192.99999,-193.00008zm17.63368,304.16028l-35.94596,0l0,-34.47145l35.94596,0l0,34.47145zm0,-71.27833l0,11.39254l-35.94596,0l0,-14.03711c0,-42.35855 48.2043,-49.08044 48.2043,-79.18614c0,-13.7276 -12.27385,-24.24331 -28.3422,-24.24331c-16.65068,0 -31.2547,12.26865 -31.2547,12.26865l-20.46508,-25.42961c0,0 20.17136,-21.03726 54.93639,-21.03726c33.02327,0 63.6853,20.44981 63.6853,54.92631c0.01541,48.22982 -50.81805,53.79186 -50.81805,85.34591l0,0.00002z"
            fill="url(#svg_6)" />
    </g>
    <defs>
        <radialGradient r="1.63279" cy="0" cx="0" spreadMethod="pad" id="svg_6">
            <stop offset="0" stop-opacity="0.99609" stop-color="#0fffff" />
            <stop offset="0.99609" stop-opacity="0.99609" stop-color="#7f00ef" />
            <stop offset="1" stop-opacity="0.99609" stop-color="#7f00ef" />
            <stop offset="NaN" stop-opacity="0" stop-color="0" />
            <stop offset="NaN" stop-opacity="0" stop-color="0" />
            <stop offset="NaN" stop-opacity="0" stop-color="0" />
            <stop offset="NaN" stop-opacity="0" stop-color="0" />
        </radialGradient>
        <radialGradient r="0.66611" cy="0.59454" cx="0.625" spreadMethod="pad" id="svg_11">
            <stop offset="0" stop-opacity="0.99609" stop-color="#2ff9f6" />
            <stop offset="1" stop-opacity="0.99609" stop-color="#6706ce" />
        </radialGradient>
    </defs>
</svg>